<svg width="28" height="32" viewBox="0 0 28 32" fill="none" xmlns="http://www.w3.org/2000/svg">
<path d="M15.1289 2.7334V29.2668C21.8623 28.6001 27.1289 22.9334 27.1289 16.0001C27.1289 9.06684 21.8622 3.40004 15.1289 2.7334Z" fill="#FFE100"/>
<path d="M15.1289 2.7334V3.1334C20.8623 4.60004 25.1289 9.80004 25.1289 16C25.1289 22.2 20.8623 27.4 15.1289 28.8667V29.2667C21.8623 28.6 27.1289 22.9333 27.1289 16C27.1289 9.06676 21.8622 3.40004 15.1289 2.7334Z" fill="#FFA800"/>
<path d="M15.1289 12.2666V19.8C16.6623 19.2666 17.7955 17.8 17.7955 16.0666C17.7955 14.3332 16.6622 12.8 15.1289 12.2666Z" fill="#63D3FD"/>
<path d="M15.1286 20.4666C14.9952 20.4666 14.8619 20.3999 14.7286 20.3332C14.5952 20.1999 14.4619 19.9999 14.4619 19.7999V12.2665C14.4619 12.0665 14.5953 11.8665 14.7286 11.7332C14.9286 11.5998 15.1286 11.5998 15.3286 11.6665C17.1952 12.3332 18.4619 14.0665 18.4619 16.0665C18.4619 18.0665 17.1953 19.7999 15.3286 20.4665C15.2618 20.3999 15.1952 20.4666 15.1286 20.4666ZM15.7952 13.3333V18.6667C16.5952 18.0667 17.1286 17.0667 17.1286 16C17.1286 14.9334 16.5952 13.9333 15.7952 13.3333Z" fill="black"/>
<path d="M15.1286 29.9335C14.9952 29.9335 14.7952 29.8669 14.6619 29.7335C14.5286 29.6002 14.4619 29.4002 14.4619 29.2669V2.73353C14.4619 2.53353 14.5286 2.33353 14.6619 2.26689C14.7953 2.13353 14.9953 2.06689 15.1953 2.06689C22.3952 2.80018 27.7952 8.80018 27.7952 16.0002C27.7952 23.2002 22.3952 29.2002 15.1286 29.9335ZM15.7952 3.46682V28.4668C21.9286 27.5335 26.4618 22.2668 26.4618 15.9335C26.4618 9.73354 21.9286 4.46682 15.7952 3.46682Z" fill="black"/>
<path d="M0.666992 31.3336H27.3337V0.66687H0.666992V31.3336Z" fill="#FFE100"/>
<path d="M0.666992 31.3336H2.00035V0.66687H0.666992V31.3336Z" fill="white"/>
<path d="M27.3334 32H0.666641C0.266641 32 0 31.7334 0 31.3334V0.666641C0 0.266641 0.266641 0 0.666641 0H27.3333C27.7333 0 27.9999 0.266641 27.9999 0.666641V31.3333C28 31.7334 27.7334 32 27.3334 32ZM1.33336 30.6666H26.6667V1.33336H1.33336V30.6666Z" fill="black"/>
<path d="M3.33363 15.3335C2.93363 15.3335 2.66699 15.0669 2.66699 14.6669V3.33351C2.66699 2.93351 2.93363 2.66687 3.33363 2.66687H7.33363C7.73363 2.66687 8.00027 2.93351 8.00027 3.33351C8.00027 3.73351 7.73363 4.00015 7.33363 4.00015H4.00027V14.6668C4.00027 15.0668 3.73363 15.3335 3.33363 15.3335Z" fill="black"/>
<path d="M24.6663 8.66679C24.2663 8.66679 23.9996 8.40015 23.9996 8.00015V4.00015H13.9996C13.5996 4.00015 13.333 3.73351 13.333 3.33351C13.333 2.93351 13.5996 2.66687 13.9996 2.66687H24.6663C25.0663 2.66687 25.3329 2.93351 25.3329 3.33351V8.00015C25.333 8.40015 25.0663 8.66679 24.6663 8.66679Z" fill="black"/>
<path d="M13.9993 29.3342H3.33266C2.93266 29.3342 2.66602 29.0676 2.66602 28.6676V21.3342C2.66602 20.9342 2.93266 20.6676 3.33266 20.6676C3.73266 20.6676 3.9993 20.9342 3.9993 21.3342V28.0009H13.9993C14.3993 28.0009 14.6659 28.2675 14.6659 28.6675C14.6659 29.0675 14.3993 29.3342 13.9993 29.3342Z" fill="black"/>
<path d="M24.6666 29.3336H20.6666C20.2666 29.3336 20 29.067 20 28.667C20 28.267 20.2666 28.0003 20.6666 28.0003H24V14.6669C24 14.2669 24.2666 14.0002 24.6666 14.0002C25.0666 14.0002 25.3333 14.2669 25.3333 14.6669V28.6669C25.3334 29.0669 25.0666 29.3336 24.6666 29.3336Z" fill="black"/>
</svg>
