<svg width="43" height="43" viewBox="0 0 43 43" fill="none" xmlns="http://www.w3.org/2000/svg">
<g clip-path="url(#clip0_278_720)">
<path d="M21.5005 14.1155C17.4284 14.1155 14.1152 17.4279 14.1152 21.5C14.1152 25.5728 17.4284 28.8853 21.5005 28.8853C25.5726 28.8853 28.8857 25.5728 28.8857 21.5C28.8857 17.4279 25.5726 14.1155 21.5005 14.1155ZM21.5005 26.2572C20.8758 26.2572 20.2573 26.1342 19.6802 25.8952C19.1032 25.6561 18.5788 25.3058 18.1371 24.8641C17.6954 24.4224 17.3451 23.8981 17.106 23.321C16.867 22.7439 16.744 22.1254 16.744 21.5007C16.744 20.8761 16.867 20.2576 17.106 19.6805C17.3451 19.1034 17.6954 18.579 18.1371 18.1374C18.5788 17.6957 19.1032 17.3453 19.6802 17.1063C20.2573 16.8672 20.8758 16.7442 21.5005 16.7442C22.762 16.7442 23.9718 17.2453 24.8639 18.1374C25.7559 19.0294 26.257 20.2392 26.257 21.5007C26.257 22.7622 25.7559 23.9721 24.8639 24.8641C23.9718 25.7561 22.762 26.2572 21.5005 26.2572Z" fill="white"/>
<path d="M21.5 0C9.62627 0 0 9.62627 0 21.5C0 33.3745 9.62627 43 21.5 43C33.3737 43 43 33.3745 43 21.5C43 9.62627 33.3737 0 21.5 0ZM28.2596 38.8777L22.7427 30.6948C22.331 30.7538 21.9159 30.785 21.5 30.788C16.3787 30.788 12.2127 26.6213 12.2127 21.5C12.2127 21.0779 12.2514 20.6651 12.3059 20.258L4.12227 14.7411C5.06477 12.3349 6.49451 10.1496 8.32175 8.32219C10.149 6.49482 12.3343 5.06493 14.7404 4.12227L20.2573 12.3059C20.6644 12.2507 21.0779 12.2127 21.4993 12.2127C26.6206 12.2127 30.7866 16.3787 30.7866 21.5C30.7866 21.9221 30.7479 22.3349 30.6934 22.742L38.877 28.2582C37.9349 30.6646 36.5054 32.8501 34.6782 34.6777C32.8511 36.5052 30.6658 37.9351 28.2596 38.8777Z" fill="white"/>
</g>
<defs>
<clipPath id="clip0_278_720">
<rect width="43" height="43" fill="white"/>
</clipPath>
</defs>
</svg>
