<svg width="44" height="92" viewBox="0 0 44 92" fill="none" xmlns="http://www.w3.org/2000/svg">
<path d="M2.1665 2.8833V89.1167C24.0499 86.9501 41.1665 68.5333 41.1665 46.0001C41.1665 23.467 24.0497 5.04988 2.1665 2.8833Z" fill="#FFE100"/>
<path d="M2.1665 2.8833V4.1833C20.7999 8.94988 34.6665 25.8499 34.6665 45.9999C34.6665 66.1499 20.7999 83.0499 2.1665 87.8165V89.1165C24.0499 86.9499 41.1665 68.5331 41.1665 45.9999C41.1665 23.4667 24.0497 5.04988 2.1665 2.8833Z" fill="#FFA800"/>
<path d="M2.1665 33.8667V58.3501C7.14992 56.6167 10.8331 51.8501 10.8331 46.2167C10.8331 40.5833 7.14967 35.6001 2.1665 33.8667Z" fill="#63D3FD"/>
<path d="M2.16658 60.5166C1.73316 60.5166 1.3 60.3 0.866581 60.0832C0.433163 59.6498 0 58.9998 0 58.3498V33.8664C0 33.2164 0.433417 32.5664 0.866581 32.133C1.51658 31.6995 2.16658 31.6995 2.81658 31.9164C8.88316 34.083 13 39.7164 13 46.2164C13 52.7164 8.88341 58.3498 2.81658 60.5164C2.59974 60.3 2.38316 60.5166 2.16658 60.5166ZM4.33316 37.3335V54.6669C6.93316 52.7169 8.66658 49.4669 8.66658 46.0003C8.66658 42.5337 6.93316 39.2835 4.33316 37.3335Z" fill="black"/>
<path d="M2.16658 91.2839C1.73316 91.2839 1.08316 91.0673 0.649999 90.6339C0.216835 90.2004 0 89.5505 0 89.1173V2.88387C0 2.23387 0.216581 1.58387 0.649999 1.36728C1.08342 0.933867 1.73342 0.717285 2.38342 0.717285C25.7832 3.10045 43.3332 22.6005 43.3332 46.0005C43.3332 69.4005 25.7832 88.9004 2.16658 91.2839ZM4.33316 5.26703V86.517C24.2666 83.4836 38.9997 66.367 38.9997 45.7836C38.9997 25.6339 24.2666 8.51703 4.33316 5.26703Z" fill="black"/>
</svg>
