<svg width="32" height="32" viewBox="0 0 32 32" fill="none" xmlns="http://www.w3.org/2000/svg">
<path d="M14.7499 6H17.2562C18.4475 6 19.4226 6.92548 19.5018 8.09667L19.507 8.25077L19.507 8.50086H20.7498C22.5453 8.50086 24.0009 9.95644 24.0009 11.752V23.7607C24.0009 25.0038 22.9932 26.0115 21.7501 26.0115H10.2508C9.00771 26.0115 8 25.0038 8 23.7607V11.752C8 9.95644 9.45558 8.50086 11.2511 8.50086H12.4985L12.4991 8.25077C12.4991 7.0595 13.4246 6.08438 14.5958 6.00519L14.7499 6ZM19.2545 17.504H12.7539C11.8354 17.504 11.0821 18.2113 11.0091 19.111L11.0033 19.2546V21.2523C11.0033 22.1708 11.7107 22.9241 12.6103 22.9971L12.7539 23.0029H19.2545C20.1729 23.0029 20.9262 22.2956 20.9993 21.3959L21.0051 21.2523V19.2546C21.0051 18.3361 20.2977 17.5828 19.398 17.5098L19.2545 17.504ZM12.7539 19.0045H19.2545C19.3728 19.0045 19.472 19.0867 19.4979 19.1972L19.5045 19.2546V21.2523C19.5045 21.3707 19.4223 21.4699 19.3118 21.4958L19.2545 21.5024H12.7539C12.6355 21.5024 12.5364 21.4202 12.5104 21.3097L12.5038 21.2523V19.2546C12.5038 19.1362 12.5861 19.037 12.6966 19.0111L12.7539 19.0045ZM17.2532 13.5026H14.7523L14.6505 13.5094C14.2843 13.5591 14.0021 13.873 14.0021 14.2528C14.0021 14.6327 14.2843 14.9466 14.6505 14.9963L14.7523 15.0031H17.2532L17.355 14.9963C17.7212 14.9466 18.0034 14.6327 18.0034 14.2528C18.0034 13.873 17.7212 13.5591 17.355 13.5094L17.2532 13.5026ZM17.2562 7.50052H14.7499C14.37 7.50052 14.0561 7.78277 14.0065 8.14897L13.9996 8.25077L13.9991 8.50086H18.0065V8.25077C18.0065 7.87095 17.7242 7.55704 17.358 7.50737L17.2562 7.50052Z" fill="white" fill-opacity="0.2"/>
</svg>
