<svg width="32" height="32" viewBox="0 0 32 32" fill="none" xmlns="http://www.w3.org/2000/svg">
<path d="M24.1086 21.2926L22.497 19.681C22.5894 19.608 22.6736 19.5233 22.7464 19.4234C23.1159 18.9156 23.026 18.2481 22.9466 17.6593C22.8964 17.2872 22.8445 16.9026 22.9235 16.6596C22.9962 16.4358 23.256 16.1659 23.5073 15.9048C23.9278 15.4679 24.4043 14.9729 24.4043 14.32C24.4043 13.6671 23.9278 13.1719 23.5073 12.7352C23.2561 12.4742 22.9962 12.2042 22.9236 11.9804C22.8445 11.7373 22.8964 11.3527 22.9466 10.9806C23.0259 10.3917 23.1159 9.72422 22.7465 9.21656C22.3735 8.70409 21.707 8.58369 21.119 8.47756C20.7527 8.41138 20.374 8.34307 20.1723 8.19625C19.9754 8.05295 19.7958 7.71714 19.6223 7.39236C19.3385 6.86163 19.0171 6.26018 18.4063 6.06192C18.2796 6.02095 18.144 6 18.0033 6C17.5506 6 17.1116 6.21114 16.6871 6.41524C16.3436 6.58051 15.9884 6.75133 15.7234 6.75133C15.4583 6.75133 15.1032 6.58051 14.7597 6.41524C14.3351 6.21114 13.8962 6 13.4433 6C13.3026 6 13.1671 6.02095 13.0403 6.06201C12.4297 6.26036 12.1081 6.86182 11.8244 7.39255C11.6508 7.71724 11.4713 8.05295 11.2744 8.19625C11.0728 8.34307 10.694 8.41138 10.3278 8.47756C9.7398 8.58369 9.07337 8.704 8.70021 9.21665C8.33075 9.7244 8.42066 10.3918 8.50009 10.9806C8.55024 11.3527 8.60214 11.7373 8.52308 11.9804C8.45051 12.2042 8.19061 12.4742 7.93933 12.7353C7.5189 13.1721 7.04239 13.6672 7.04239 14.3201C7.04239 14.9729 7.5189 15.4679 7.93924 15.9047C8.19061 16.1658 8.45051 16.4358 8.52308 16.6596C8.60214 16.9027 8.55024 17.2874 8.50009 17.6594C8.42075 18.2483 8.33075 18.9157 8.70021 19.4234C8.77362 19.5243 8.85871 19.6095 8.95204 19.6829L7.34233 21.2926C6.90901 21.7261 6.98918 22.1171 7.04387 22.265C7.09846 22.4131 7.29135 22.7625 7.90226 22.8107L9.4913 22.9362C9.77354 22.9585 10.0406 23.2256 10.0628 23.5077L10.1883 25.0968C10.2409 25.7635 10.6518 26.0001 10.9876 26.0001C11.1588 26.0001 11.4225 25.9405 11.7064 25.6567L15.4194 21.9438C15.5286 21.9101 15.6316 21.8887 15.7234 21.8887C15.8169 21.8887 15.922 21.9108 16.0334 21.9455L19.7446 25.6567C20.0284 25.9406 20.292 26.0001 20.4633 26.0001C20.7991 26.0001 21.21 25.7636 21.2626 25.0968L21.3881 23.5078C21.4105 23.2256 21.6775 22.9585 21.9595 22.9362L23.5488 22.8107C24.1597 22.7625 24.3526 22.4131 24.4072 22.265C24.4618 22.1171 24.5419 21.7261 24.1086 21.2926ZM17.273 15.2356L18.2204 18.1439L15.7402 16.3383L13.2599 18.1385L14.2074 15.2365L11.7271 13.4482H14.7929L15.7403 10.5325L16.6876 13.4482H19.7534L17.273 15.2356Z" fill="white" fill-opacity="0.2"/>
</svg>
