<svg width="17" height="17" viewBox="0 0 17 17" fill="none" xmlns="http://www.w3.org/2000/svg">
<g clip-path="url(#clip0_278_761)">
<path d="M8.49983 5.58057C6.88993 5.58057 5.58008 6.89013 5.58008 8.50003C5.58008 10.1102 6.88993 11.4198 8.49983 11.4198C10.1097 11.4198 11.4196 10.1102 11.4196 8.50003C11.4196 6.89013 10.1097 5.58057 8.49983 5.58057ZM8.49983 10.3808C8.25288 10.3808 8.00835 10.3322 7.7802 10.2377C7.55205 10.1432 7.34474 10.0046 7.17013 9.83002C6.99551 9.6554 6.85699 9.4481 6.76249 9.21995C6.66798 8.9918 6.61934 8.74727 6.61934 8.50032C6.61934 8.25337 6.66798 8.00884 6.76249 7.78069C6.85699 7.55254 6.99551 7.34523 7.17013 7.17061C7.34474 6.996 7.55205 6.85748 7.7802 6.76298C8.00835 6.66847 8.25288 6.61983 8.49983 6.61983C8.99856 6.61983 9.47687 6.81796 9.82953 7.17061C10.1822 7.52327 10.3803 8.00158 10.3803 8.50032C10.3803 8.99905 10.1822 9.47736 9.82953 9.83002C9.47687 10.1827 8.99856 10.3808 8.49983 10.3808Z" fill="white"/>
<path d="M8.5 0C3.80573 0 0 3.80573 0 8.5C0 13.1945 3.80573 17 8.5 17C13.1943 17 17 13.1945 17 8.5C17 3.80573 13.1943 0 8.5 0ZM11.1724 15.3703L8.9913 12.1352C8.82855 12.1585 8.66441 12.1708 8.5 12.172C6.4753 12.172 4.82828 10.5247 4.82828 8.5C4.82828 8.33312 4.84358 8.16992 4.86512 8.00898L1.62973 5.82788C2.00235 4.8766 2.5676 4.01261 3.29 3.29017C4.01239 2.56772 4.87634 2.00241 5.8276 1.62973L8.0087 4.86512C8.16963 4.8433 8.33312 4.82828 8.49972 4.82828C10.5244 4.82828 12.1714 6.4753 12.1714 8.5C12.1714 8.66688 12.1561 8.83008 12.1346 8.99102L15.37 11.1718C14.9975 12.1232 14.4324 12.9873 13.71 13.7098C12.9876 14.4323 12.1237 14.9976 11.1724 15.3703Z" fill="white"/>
</g>
<defs>
<clipPath id="clip0_278_761">
<rect width="17" height="17" fill="white"/>
</clipPath>
</defs>
</svg>
