<svg width="32" height="32" viewBox="0 0 32 32" fill="none" xmlns="http://www.w3.org/2000/svg">
<path d="M10.9382 9.82867C10.1571 9.82867 9.52387 9.19545 9.52387 8.41433C9.52387 7.63322 10.1571 7 10.9382 7C11.7193 7 12.3525 7.63322 12.3525 8.41433C12.3525 9.19545 11.7193 9.82867 10.9382 9.82867Z" fill="white" fill-opacity="0.2"/>
<path d="M7.20408 11.2614C7.20408 11.2614 8.85095 9.96624 8.85486 9.96319C9.06598 9.79721 9.30161 9.90736 9.52921 9.96094C9.623 9.98305 9.72312 9.99444 9.81459 10.0249C10.0379 10.0995 10.2599 10.178 10.4799 10.2619C10.8929 10.4194 11.3442 10.5832 11.698 10.8553C11.7626 10.9049 11.8284 10.9603 11.8705 11.0312C11.9315 11.0661 11.9866 11.1133 12.0304 11.1742L12.9756 12.487L14.3346 13.1667C14.5853 13.2919 14.6869 13.5968 14.5615 13.8474C14.4725 14.0253 14.2934 14.128 14.1073 14.128C14.0311 14.128 13.9536 14.1107 13.8808 14.0742L12.4099 13.3387C12.3365 13.3021 12.273 13.2481 12.2251 13.1813L11.5533 12.2483C11.3081 12.8759 10.9875 13.6107 10.7759 14.0859L12.4126 14.426C12.6518 14.4757 12.8317 14.6738 12.8584 14.9167L13.3109 19.046C13.3222 19.1488 13.3029 19.2471 13.2637 19.3353H12.237C12.2141 19.2835 12.1966 19.2284 12.1901 19.1689L11.7822 15.4468L10.011 15.0788L9.57247 15.481C9.59075 15.5437 9.59982 15.6101 9.59716 15.6789L9.46759 19.0167C9.46321 19.1295 9.42801 19.2393 9.36573 19.3338L7.94602 21.4898H6.72907C6.67817 21.3201 6.69741 21.1307 6.80233 20.9711L8.23472 18.7959L8.35758 15.6309C8.35987 15.573 8.37066 15.5173 8.38773 15.4645L8.38831 15.4517L9.01472 11.1287L8.00395 11.9236L7.84295 13.7562C7.81969 14.0203 7.59821 14.2192 7.33797 14.2191C7.32308 14.2191 7.30797 14.2184 7.29297 14.2171C7.01378 14.1925 6.80741 13.9464 6.83188 13.6671L7.0122 11.6159C7.02443 11.4762 7.0939 11.348 7.20408 11.2614Z" fill="white" fill-opacity="0.2"/>
<path d="M10.0432 19.7865H14.0865V17.5843H18.13V15.2549H26.2168V15.4465V20.925V24.5583L5.99975 24.6064L6.04198 24.5583H5.99975V21.9409H10.0432V19.7865Z" fill="white" fill-opacity="0.2"/>
</svg>
