<svg width="41" height="40" viewBox="0 0 41 40" fill="none" xmlns="http://www.w3.org/2000/svg">
<path d="M20.5 12.8024C16.8067 12.8024 13.8018 15.8067 13.8018 19.5C13.8018 23.194 16.8067 26.1983 20.5 26.1983C24.1933 26.1983 27.1983 23.194 27.1983 19.5C27.1983 15.8067 24.1933 12.8024 20.5 12.8024ZM20.5 23.8147C19.9335 23.8147 19.3725 23.7031 18.8491 23.4863C18.3257 23.2695 17.8501 22.9518 17.4495 22.5512C17.0489 22.1506 16.7311 21.675 16.5143 21.1516C16.2975 20.6282 16.186 20.0672 16.186 19.5007C16.186 18.9342 16.2975 18.3732 16.5143 17.8498C16.7311 17.3264 17.0489 16.8508 17.4495 16.4502C17.8501 16.0496 18.3257 15.7318 18.8491 15.515C19.3725 15.2982 19.9335 15.1866 20.5 15.1866C21.6442 15.1866 22.7415 15.6411 23.5505 16.4502C24.3595 17.2592 24.8141 18.3565 24.8141 19.5007C24.8141 20.6448 24.3595 21.7421 23.5505 22.5512C22.7415 23.3602 21.6442 23.8147 20.5 23.8147Z" fill="#EAD561"/>
<path d="M20.5 0C9.7308 0 1 8.7308 1 19.5C1 30.2698 9.7308 39 20.5 39C31.2692 39 40 30.2698 40 19.5C40 8.7308 31.2692 0 20.5 0ZM26.6308 35.2612L21.6271 27.8395C21.2537 27.893 20.8772 27.9212 20.5 27.924C15.8551 27.924 12.0766 24.1449 12.0766 19.5C12.0766 19.1171 12.1117 18.7428 12.1611 18.3735L4.7388 13.3698C5.59362 11.1875 6.89037 9.20541 8.54764 7.54803C10.2049 5.89065 12.1869 4.59377 14.3692 3.7388L19.3729 11.1611C19.7421 11.1111 20.1171 11.0766 20.4993 11.0766C25.1442 11.0766 28.9227 14.8551 28.9227 19.5C28.9227 19.8828 28.8876 20.2572 28.8382 20.6264L36.2606 25.6295C35.4061 27.812 34.1095 29.7943 32.4524 31.4518C30.7952 33.1093 28.8132 34.4063 26.6308 35.2612Z" fill="#EAD561"/>
</svg>
