<svg width="30" height="30" viewBox="0 0 30 30" fill="none" xmlns="http://www.w3.org/2000/svg">
<path d="M30 15C30 23.2842 23.2842 30 15 30C6.71583 30 0 23.2842 0 15C0 6.71583 6.71583 0 15 0C23.2842 0 30 6.71583 30 15ZM15 12.5C14.337 12.5 13.7011 12.7634 13.2322 13.2322C12.7634 13.7011 12.5 14.337 12.5 15C12.5 15.663 12.7634 16.2989 13.2322 16.7678C13.7011 17.2366 14.337 17.5 15 17.5C15.663 17.5 16.2989 17.2366 16.7678 16.7678C17.2366 16.2989 17.5 15.663 17.5 15C17.5 14.337 17.2366 13.7011 16.7678 13.2322C16.2989 12.7634 15.663 12.5 15 12.5Z" fill="#FFC79B"/>
<path d="M11.0736 14.5634C11.1657 13.6685 11.5605 12.8318 12.1928 12.1918L5.57195 5.57178C3.42956 7.71117 2.08188 10.518 1.75195 13.5276L11.0736 14.5634ZM18.9278 15.4368C18.8357 16.3317 18.4409 17.1684 17.8086 17.8084L24.4286 24.4284C26.571 22.289 27.9187 19.4823 28.2486 16.4726L18.9278 15.4368Z" fill="#EAA269"/>
<path d="M15.4388 18.9264L16.4813 28.2456C19.4874 27.9139 22.2905 26.567 24.428 24.4273L17.808 17.8073C17.1682 18.4385 16.3327 18.8332 15.4388 18.9264ZM14.5863 11.0706L13.6038 1.7406C10.5655 2.05687 7.72895 3.40998 5.57129 5.57227L12.1913 12.1923C12.8373 11.5546 13.6829 11.1586 14.5863 11.0706Z" fill="#FFD9BB"/>
</svg>
