<svg width="40" height="30" viewBox="0 0 40 30" fill="none" xmlns="http://www.w3.org/2000/svg">
<path d="M2 5H11.5" stroke="white" stroke-width="3" stroke-linecap="round"/>
<path d="M7 18H16.5" stroke="white" stroke-width="3" stroke-linecap="round"/>
<path d="M39 15C39 23.2842 32.2842 30 24 30C15.7158 30 9 23.2842 9 15C9 6.71583 15.7158 0 24 0C32.2842 0 39 6.71583 39 15ZM24 12.5C23.337 12.5 22.7011 12.7634 22.2322 13.2322C21.7634 13.7011 21.5 14.337 21.5 15C21.5 15.663 21.7634 16.2989 22.2322 16.7678C22.7011 17.2366 23.337 17.5 24 17.5C24.663 17.5 25.2989 17.2366 25.7678 16.7678C26.2366 16.2989 26.5 15.663 26.5 15C26.5 14.337 26.2366 13.7011 25.7678 13.2322C25.2989 12.7634 24.663 12.5 24 12.5Z" fill="#FFC79B"/>
<path d="M20.0736 14.5634C20.1657 13.6685 20.5605 12.8318 21.1928 12.1918L14.572 5.57178C12.4296 7.71117 11.0819 10.518 10.752 13.5276L20.0736 14.5634ZM27.9278 15.4368C27.8357 16.3317 27.4409 17.1684 26.8086 17.8084L33.4286 24.4284C35.571 22.289 36.9187 19.4823 37.2486 16.4726L27.9278 15.4368Z" fill="#EAA269"/>
<path d="M24.4388 18.9264L25.4813 28.2456C28.4874 27.9139 31.2905 26.567 33.428 24.4273L26.808 17.8073C26.1682 18.4385 25.3327 18.8332 24.4388 18.9264ZM23.5863 11.0706L22.6038 1.7406C19.5655 2.05687 16.729 3.40998 14.5713 5.57227L21.1913 12.1923C21.8373 11.5546 22.6829 11.1586 23.5863 11.0706Z" fill="#FFD9BB"/>
<path d="M10 27H19.5" stroke="white" stroke-width="3" stroke-linecap="round"/>
<path d="M29 23H38.5" stroke="white" stroke-width="3" stroke-linecap="round"/>
<path d="M21 3H36" stroke="white" stroke-width="3" stroke-linecap="round"/>
</svg>
