<svg width="67" height="47" viewBox="0 0 67 47" fill="none" xmlns="http://www.w3.org/2000/svg">
<path fill-rule="evenodd" clip-rule="evenodd" d="M8.08694 39.2956L0 39.2956V15.7352C0 7.06792 7.25534 0.0169373 16.1739 0.0169373L33.6943 -9.91821e-05C42.6142 -9.91821e-05 49.8696 7.05088 49.8696 15.7182C51.3564 15.7182 52.5653 16.8932 52.5653 18.338V20.9577C53.3092 20.9577 53.9131 21.5432 53.9131 22.2675C53.9131 22.9919 53.3092 23.5774 52.5653 23.5774V26.1971H57.9565C59.4433 26.1971 60.6522 27.3722 60.6522 28.8169V31.4367C61.3962 31.4367 62 32.0221 62 32.7465C62 33.4708 61.3962 34.0563 60.6522 34.0563V36.676C61.3962 36.676 62 37.2615 62 37.9858C62 38.7102 61.3962 39.2957 60.6522 39.2957H31C30.2561 39.2957 29.6522 38.7101 29.6522 37.9857C29.6522 37.2613 30.2561 36.6759 31 36.6759V34.0561C30.2561 34.0561 29.6522 33.4707 29.6522 32.7463C29.6522 32.022 30.2561 31.4365 31 31.4365V28.8169C31 27.372 32.2091 26.1971 33.6957 26.1971H39.0869V23.5774C38.343 23.5774 37.7392 22.9919 37.7392 22.2675C37.7392 21.5432 38.343 20.9577 39.0869 20.9577V18.338C39.0869 16.8931 40.296 15.7182 41.7826 15.7182C41.7826 11.3838 38.1557 7.85905 33.6957 7.85905L16.1751 7.87608C11.7139 7.87608 8.08694 11.4009 8.08694 15.7352V39.2956ZM57.9565 36.676V34.0563H33.6943V36.676H57.9565ZM49.8696 23.5774H41.7812L41.7826 26.1971H49.8696V23.5774ZM49.8694 18.338H41.7811V20.9577H49.8694V18.338Z" fill="white"/>
<rect x="26" y="38.9998" width="41" height="8" rx="4" fill="#EAA269"/>
</svg>
