<svg width="67" height="93" viewBox="0 0 67 93" fill="none" xmlns="http://www.w3.org/2000/svg">
<path fill-rule="evenodd" clip-rule="evenodd" d="M58.9131 0L67 1.84156e-05V77.2647C67 85.932 59.7447 92.983 50.8261 92.983L33.3057 93C24.3858 93 17.1304 85.949 17.1304 77.2817C15.6436 77.2817 14.4347 76.1067 14.4347 74.6619V72.0422C13.6908 72.0422 13.0869 71.4567 13.0869 70.7324C13.0869 70.008 13.6908 69.4225 14.4347 69.4225V66.8028H9.04347C7.55671 66.8028 6.34777 65.6277 6.34777 64.183V61.5632C5.60384 61.5632 5 60.9778 5 60.2534C5 59.5291 5.60384 58.9436 6.34777 58.9436V56.3239C5.60384 56.3239 5 55.7384 5 55.0141C5 54.2897 5.60384 53.7042 6.34777 53.7042H36C36.7439 53.7042 37.3478 54.2898 37.3478 55.0142C37.3478 55.7386 36.7439 56.324 36 56.324V58.9438C36.7439 58.9438 37.3478 59.5292 37.3478 60.2536C37.3478 60.978 36.7439 61.5634 36 61.5634V64.183C36 65.6279 34.7909 66.8028 33.3043 66.8028H27.9131V69.4225C28.657 69.4225 29.2608 70.008 29.2608 70.7324C29.2608 71.4567 28.657 72.0422 27.9131 72.0422V74.6619C27.9131 76.1068 26.704 77.2817 25.2174 77.2817C25.2174 81.6161 28.8443 85.1409 33.3043 85.1409L50.8249 85.1238C55.2861 85.1238 58.9131 81.599 58.9131 77.2647V0ZM9.04347 56.3239V58.9436H33.3057V56.3239H9.04347ZM17.1304 69.4225H25.2188L25.2174 66.8028H17.1304V69.4225ZM17.1306 74.6619H25.2189V72.0422H17.1306V74.6619Z" fill="white"/>
<rect y="46" width="41" height="8" rx="4" fill="#63B8ED"/>
</svg>
