<svg width="41" height="40" viewBox="0 0 41 40" fill="none" xmlns="http://www.w3.org/2000/svg">
<path d="M20.5 0C9.7308 0 1 8.7308 1 19.5C1 30.2698 9.7308 39 20.5 39C31.2692 39 40 30.2698 40 19.5C40 8.7308 31.2692 0 20.5 0ZM26.6308 35.2612L21.6271 27.8395C21.2537 27.893 20.8772 27.9212 20.5 27.924C15.8551 27.924 12.0766 24.1449 12.0766 19.5C12.0766 19.1171 12.1117 18.7428 12.1611 18.3735L4.7388 13.3698C5.59362 11.1875 6.89037 9.20541 8.54764 7.54803C10.2049 5.89065 12.1869 4.59377 14.3692 3.7388L19.3729 11.1611C19.7421 11.1111 20.1171 11.0766 20.4993 11.0766C25.1442 11.0766 28.9227 14.8551 28.9227 19.5C28.9227 19.8828 28.8876 20.2572 28.8382 20.6264L36.2606 25.6295C35.4061 27.812 34.1095 29.7943 32.4524 31.4518C30.7952 33.1093 28.8132 34.4063 26.6308 35.2612Z" fill="white"/>
<path d="M17.1247 16.0001C17.1247 16.0001 21.4926 15.9999 23.9885 16.0001C24.3535 16.0001 15.8776 24.1118 17.1255 24.1118C20.7807 24.1119 23.9893 24.1118 23.9893 24.1118" stroke="white" stroke-width="3" stroke-linecap="round"/>
</svg>
