<svg width="16" height="17" viewBox="0 0 16 17" fill="none" xmlns="http://www.w3.org/2000/svg">
<g clip-path="url(#clip0_278_757)">
<path fill-rule="evenodd" clip-rule="evenodd" d="M12.0911 4.46493C12.0911 7.07623 10.3366 9.31729 8.0002 9.31729C5.66202 9.31729 3.90929 7.07623 3.90929 4.46412C3.90929 1.85363 5.41838 0.326904 8.0002 0.326904C10.582 0.326904 12.0911 1.85282 12.0911 4.46493ZM0.820198 15.1545C1.1702 15.5288 2.67747 16.6731 8.0002 16.6731C13.3229 16.6731 14.8293 15.5288 15.1802 15.1553C15.2127 15.1194 15.2368 15.0779 15.2509 15.0334C15.2649 14.9888 15.2687 14.9421 15.262 14.8962C15.182 14.1754 14.4602 10.9519 8.0002 10.9519C1.5402 10.9519 0.81838 14.1754 0.737471 14.8962C0.730887 14.9422 0.734829 14.9889 0.749056 15.0335C0.763282 15.078 0.787493 15.1187 0.820198 15.1545Z" fill="white"/>
</g>
<defs>
<clipPath id="clip0_278_757">
<rect width="16" height="17" fill="white"/>
</clipPath>
</defs>
</svg>
