<svg width="33" height="33" viewBox="0 0 33 33" fill="none" xmlns="http://www.w3.org/2000/svg">
<path d="M32.8519 21.2291C32.8526 21.3497 32.8295 21.4692 32.7838 21.5808C32.7381 21.6923 32.6709 21.7938 32.5858 21.8792C32.5008 21.9647 32.3997 22.0325 32.2883 22.0787C32.177 22.1249 32.0576 22.1487 31.937 22.1485L27.3537 22.1605C27.2335 22.1607 27.1144 22.1372 27.0033 22.0914C26.8921 22.0456 26.7911 21.9784 26.706 21.8935C26.6208 21.8086 26.5533 21.7078 26.5071 21.5968C26.461 21.4858 26.4372 21.3667 26.437 21.2465C26.4363 21.1262 26.4594 21.0068 26.5048 20.8954C26.5503 20.7839 26.6173 20.6826 26.7021 20.5971C26.7868 20.5116 26.8876 20.4436 26.9986 20.3972C27.1096 20.3507 27.2288 20.3266 27.3491 20.3262L31.9325 20.3143C32.0529 20.3139 32.1723 20.3373 32.2837 20.3831C32.3951 20.4289 32.4964 20.4962 32.5818 20.5811C32.6672 20.6661 32.735 20.7671 32.7813 20.8783C32.8277 20.9894 32.8516 21.1087 32.8519 21.2291ZM31.3971 16.1975C31.4488 16.3063 31.4786 16.4243 31.4847 16.5446C31.4908 16.6649 31.4731 16.7853 31.4327 16.8988C31.3923 17.0122 31.3299 17.1166 31.249 17.206C31.1682 17.2953 31.0706 17.3679 30.9617 17.4195L26.8211 19.3857C26.6012 19.4898 26.349 19.5022 26.1199 19.4203C25.8909 19.3384 25.7037 19.1688 25.5997 18.9489C25.4956 18.729 25.4832 18.4768 25.5651 18.2477C25.647 18.0187 25.8166 17.8315 26.0365 17.7275L30.1761 15.7621C30.3958 15.658 30.6478 15.6453 30.8768 15.727C31.1058 15.8086 31.2929 15.9779 31.3971 16.1975ZM31.4219 26.269C31.5252 26.0489 31.5368 25.7969 31.4543 25.5683C31.3718 25.3396 31.2019 25.1531 30.9819 25.0498L26.8321 23.1046C26.7226 23.0486 26.6029 23.0152 26.4801 23.0064C26.3574 22.9976 26.2341 23.0136 26.1177 23.0535C26.0013 23.0934 25.8941 23.1563 25.8025 23.2385C25.7109 23.3206 25.6368 23.4204 25.5846 23.5318C25.5324 23.6433 25.5032 23.7641 25.4987 23.887C25.4941 24.01 25.5144 24.1326 25.5583 24.2476C25.6022 24.3625 25.6687 24.4675 25.754 24.5562C25.8393 24.6449 25.9416 24.7155 26.0548 24.7638L30.2036 26.7099C30.4237 26.8128 30.6756 26.8242 30.904 26.7415C31.1324 26.6588 31.3187 26.4889 31.4219 26.269Z" fill="white"/>
<path d="M25.6471 13.6354C24.3454 13.2513 23.1785 12.2173 22.7724 11.5729C22.0757 10.4656 22.9163 10.1787 22.6322 7.09133C22.3709 4.26525 18.4797 1.22558 13.7497 0.916665C11.5992 0.776415 9.36248 1.2155 7.07082 2.46858C1.18582 5.687 -1.14618 12.4896 3.39865 19.0593C7.49615 24.981 3.65165 27.6567 3.65165 27.6567C3.65165 27.6567 3.80382 28.9034 6.32282 30.5791C8.84273 32.2538 11.9337 31.1181 11.9337 31.1181C11.9337 31.1181 12.9531 27.4936 16.2861 27.8272C18.6749 28.1792 22.0299 27.709 22.8778 26.8886C23.6707 26.1213 22.7394 25.1597 23.3719 23.0166C21.204 22.8039 20.0123 21.7708 19.8977 20.3142C22.304 20.548 23.2967 19.7844 23.9842 18.9438C23.965 18.4488 23.9155 17.3983 23.8678 16.6943C25.9963 16.0783 26.8122 13.9792 25.6471 13.6354Z" fill="#226699"/>
</svg>
