<svg width="32" height="32" viewBox="0 0 32 32" fill="none" xmlns="http://www.w3.org/2000/svg">
<path d="M25.9773 11.6791C26.1887 9.6939 24.8965 8.04586 23.2886 7.47708C23.1132 7.41508 22.9864 7.21528 23.0046 7.01279C23.0246 6.78929 23.0386 6.57399 23.0464 6.36853C23.054 6.16515 22.9043 6 22.7201 6H9.27988C9.09572 6 8.94594 6.16507 8.95376 6.36853C8.96158 6.57399 8.9754 6.78929 8.99542 7.01279C9.01362 7.21528 8.88669 7.4153 8.71143 7.47731C7.10357 8.04608 5.81111 9.6942 6.02277 11.6793C6.14242 12.8027 6.54585 13.9064 7.38621 14.6138C7.85941 15.0122 8.36078 15.3119 8.89748 15.5899C9.14331 15.7092 9.39043 15.8252 9.63882 15.9383C10.1498 16.1748 10.4045 16.406 10.757 16.739C10.897 16.8713 10.8968 16.853 10.7159 16.8147C10.1355 16.6925 9.64165 17.6836 10.219 18.2193C10.8044 18.7627 11.4803 18.6635 12.0438 18.1363C12.2144 17.9767 12.3213 17.7881 12.3788 17.5847C12.4339 17.3904 12.5197 17.3555 12.6328 17.516C13.2398 18.3778 13.9007 19.062 14.5991 19.467C14.7623 19.5617 14.9011 19.7884 14.9011 19.992V22.3062C14.9011 22.3771 14.9075 22.4462 14.919 22.5132C14.9384 22.6264 14.8198 22.7141 14.6356 22.7141H13.252C12.7966 22.7141 12.4276 23.1221 12.4276 23.6256V25.0885C12.4276 25.5921 12.7968 26 13.252 26H18.7481C19.2036 26 19.5726 25.592 19.5726 25.0885V23.6256C19.5726 23.1221 19.2033 22.7141 18.7481 22.7141H17.3645C17.1804 22.7141 17.0617 22.6263 17.0812 22.5132C17.0927 22.4462 17.0992 22.3771 17.0992 22.3062V19.9917C17.0992 19.7881 17.238 19.5614 17.4009 19.4668C18.0993 19.0617 18.7602 18.3777 19.3673 17.5159C19.4803 17.3553 19.5661 17.3902 19.6212 17.5845C19.6788 17.7879 19.7855 17.9765 19.9562 18.1361C20.5197 18.6634 21.1957 18.7626 21.781 18.2192C22.3581 17.6835 21.8645 16.6924 21.2841 16.8147C21.1032 16.8527 21.1032 16.8712 21.2431 16.739C21.5954 16.406 21.8501 16.1748 22.3613 15.9383C22.6096 15.8251 22.8565 15.7091 23.1024 15.5898C23.6393 15.3118 24.1405 15.0121 24.6139 14.6137C25.454 13.9062 25.8575 12.8024 25.9773 11.6791ZM10.9426 14.8546C10.1533 14.3919 9.19225 14.1205 8.48913 13.6343C6.66449 12.3723 7.2969 9.80524 8.95113 9.01162C9.12005 8.93069 9.29518 9.04859 9.33643 9.24697C9.7005 11.0063 10.3042 12.9611 11.0817 14.7098C11.1629 14.8922 11.1053 14.95 10.9426 14.8546ZM17.2551 16.8571H15.9524V9.68413H15.9218L14.1896 10.7174L13.9295 9.58204L16.1052 8.29402H17.2551V16.8571ZM23.5105 13.6341C22.8073 14.1203 21.8464 14.3916 21.057 14.8544C20.8943 14.9497 20.8369 14.892 20.9182 14.7093C21.6956 12.9607 22.2991 11.0059 22.6634 9.24675C22.7045 9.04836 22.8796 8.93046 23.0485 9.0114C24.7028 9.80524 25.335 12.3723 23.5105 13.6341Z" fill="white"/>
</svg>
