<svg width="32" height="32" viewBox="0 0 32 32" fill="none" xmlns="http://www.w3.org/2000/svg">
<g clip-path="url(#clip0_350_469)">
<path d="M16.0004 12.5654C14.1064 12.5654 12.5654 14.1061 12.5654 16.0001C12.5654 17.8944 14.1064 19.4351 16.0004 19.4351C17.8944 19.4351 19.4354 17.8944 19.4354 16.0001C19.4354 14.1061 17.8944 12.5654 16.0004 12.5654ZM16.0004 18.2128C15.7099 18.2128 15.4222 18.1555 15.1538 18.0444C14.8854 17.9332 14.6415 17.7702 14.4361 17.5648C14.2306 17.3594 14.0677 17.1155 13.9565 16.8471C13.8453 16.5786 13.7881 16.291 13.7881 16.0004C13.7881 15.7099 13.8453 15.4222 13.9565 15.1538C14.0677 14.8854 14.2306 14.6415 14.4361 14.4361C14.6415 14.2306 14.8854 14.0677 15.1538 13.9565C15.4222 13.8453 15.7099 13.7881 16.0004 13.7881C16.5872 13.7881 17.1499 14.0212 17.5648 14.4361C17.9797 14.851 18.2128 15.4137 18.2128 16.0004C18.2128 16.5872 17.9797 17.1499 17.5648 17.5648C17.1499 17.9797 16.5872 18.2128 16.0004 18.2128Z" fill="white"/>
<path d="M16 6C10.4773 6 6 10.4773 6 16C6 21.523 10.4773 26 16 26C21.5227 26 26 21.523 26 16C26 10.4773 21.5227 6 16 6ZM19.144 24.0827L16.578 20.2767C16.3865 20.3041 16.1934 20.3186 16 20.32C13.618 20.32 11.6803 18.382 11.6803 16C11.6803 15.8037 11.6983 15.6117 11.7237 15.4223L7.91733 12.8563C8.35571 11.7372 9.0207 10.7207 9.87058 9.87078C10.7205 9.02085 11.7369 8.35578 12.856 7.91733L15.422 11.7237C15.6113 11.698 15.8037 11.6803 15.9997 11.6803C18.3817 11.6803 20.3193 13.618 20.3193 16C20.3193 16.1963 20.3013 16.3883 20.276 16.5777L24.0823 19.1433C23.6441 20.2626 22.9793 21.2791 22.1294 22.1291C21.2796 22.9792 20.2632 23.6443 19.144 24.0827Z" fill="white"/>
</g>
<defs>
<clipPath id="clip0_350_469">
<rect width="20" height="20" fill="white" transform="translate(6 6)"/>
</clipPath>
</defs>
</svg>
